<?xml version="1.0" encoding="iso-8859-1"?>
<!-- Generator: Adobe Illustrator 19.0.0, SVG Export Plug-In . SVG Version: 6.00 Build 0)  -->
<svg version="1.1" id="Capa_1" xmlns="http://www.w3.org/2000/svg" xmlns:xlink="http://www.w3.org/1999/xlink" x="0px" y="0px"
	 viewBox="0 0 512 512" style="enable-background:new 0 0 512 512;" xml:space="preserve">
<g>
	<g>
		<path d="M465.399,188.93c-1.859-1.86-4.43-2.93-7.069-2.93c-2.63,0-5.21,1.07-7.07,2.93s-2.93,4.44-2.93,7.07
			s1.069,5.21,2.93,7.07c1.861,1.86,4.44,2.93,7.07,2.93c2.64,0,5.21-1.07,7.069-2.93c1.86-1.86,2.931-4.44,2.931-7.07
			S467.26,190.79,465.399,188.93z"/>
	</g>
</g>
<g>
	<g>
		<path d="M456.333,74h-11.452c1.77-1.804,2.865-4.273,2.865-7V54c0-18.748-15.252-34-34-34s-34,15.252-34,34v20h-92.738
			c1.77-1.804,2.865-4.273,2.865-7V54c0-18.748-15.252-34-34-34s-34,15.252-34,34v20h-92.738c1.77-1.804,2.865-4.273,2.865-7V54
			c0-18.748-15.252-34-34-34S64,35.252,64,54v20h-8.333C24.972,74,0,98.972,0,129.667V462c0,16.542,13.458,30,30,30h172.667
			c5.522,0,10-4.477,10-10s-4.478-10-10-10H30c-5.514,0-10-4.486-10-10V206h389.34c5.522,0,10-4.477,10-10s-4.478-10-10-10H20
			v-56.333C20,110,36,94,55.667,94H64v24.168c0,18.748,15.252,34,34,34s34-15.252,34-34c0-5.523-4.478-10-10-10
			c-5.522,0-10,4.477-10,10c0,7.72-6.28,14-14,14c-7.72,0-14-6.28-14-14V94h137.873v24.168c0,18.748,15.252,34,34,34
			c18.748,0,34-15.252,34-34c0-5.523-4.478-10-10-10c-5.522,0-10,4.477-10,10c0,7.72-6.28,14-14,14c-7.72,0-14-6.28-14-14V94
			h137.873v24.168c0,18.748,15.252,34,34,34s34-15.252,34-34c0-5.523-4.478-10-10-10c-5.522,0-10,4.477-10,10c0,7.72-6.28,14-14,14
			c-7.72,0-14-6.28-14-14V94h56.587C476,94,492,110,492,129.667V462c0,5.514-4.486,10-10,10H309.333c-5.522,0-10,4.477-10,10
			s4.478,10,10,10H482c16.542,0,30-13.458,30-30V129.667C512,98.972,487.028,74,456.333,74z M84,74V54c0-7.72,6.28-14,14-14
			c7.72,0,14,6.28,14,14v13c0,2.727,1.095,5.196,2.865,7H84z M241.873,74V54c0-7.72,6.28-14,14-14c7.72,0,14,6.28,14,14v13
			c0,2.727,1.095,5.196,2.865,7H241.873z M399.746,74V54c0-7.72,6.28-14,14-14c7.72,0,14,6.28,14,14v13c0,2.727,1.095,5.196,2.865,7
			H399.746z"/>
	</g>
</g>
<g>
	<g>
		<path d="M96,238c-23.159,0-42,18.841-42,42s18.841,42,42,42s42-18.841,42-42S119.159,238,96,238z M96,302
			c-12.131,0-22-9.869-22-22c0-12.131,9.869-22,22-22s22,9.869,22,22C118,292.131,108.131,302,96,302z"/>
	</g>
</g>
<g>
	<g>
		<path d="M416,238c-23.159,0-42,18.841-42,42s18.841,42,42,42s42-18.841,42-42S439.159,238,416,238z M416,302
			c-12.131,0-22-9.869-22-22c0-12.131,9.869-22,22-22c12.131,0,22,9.869,22,22C438,292.131,428.131,302,416,302z"/>
	</g>
</g>
<g>
	<g>
		<path d="M309.333,238c-23.159,0-42,18.841-42,42s18.841,42,42,42s42-18.841,42-42S332.492,238,309.333,238z M309.333,302
			c-12.131,0-22-9.869-22-22c0-12.131,9.869-22,22-22c12.131,0,22,9.869,22,22C331.333,292.131,321.464,302,309.333,302z"/>
	</g>
</g>
<g>
	<g>
		<path d="M202.667,238c-23.159,0-42,18.841-42,42s18.841,42,42,42s42-18.841,42-42S225.826,238,202.667,238z M202.667,302
			c-12.131,0-22-9.869-22-22c0-12.131,9.869-22,22-22c12.131,0,22,9.869,22,22C224.667,292.131,214.798,302,202.667,302z"/>
	</g>
</g>
<g>
	<g>
		<path d="M96,360c-23.159,0-42,18.841-42,42s18.841,42,42,42s42-18.841,42-42S119.159,360,96,360z M96,424
			c-12.131,0-22-9.869-22-22c0-12.131,9.869-22,22-22s22,9.869,22,22C118,414.131,108.131,424,96,424z"/>
	</g>
</g>
<g>
	<g>
		<path d="M309.333,360c-23.159,0-42,18.841-42,42s18.841,42,42,42s42-18.841,42-42S332.492,360,309.333,360z M309.333,424
			c-12.131,0-22-9.869-22-22c0-12.131,9.869-22,22-22c12.131,0,22,9.869,22,22C331.333,414.131,321.464,424,309.333,424z"/>
	</g>
</g>
<g>
	<g>
		<path d="M416,360c-23.159,0-42,18.841-42,42s18.841,42,42,42s42-18.841,42-42S439.159,360,416,360z M416,424
			c-12.131,0-22-9.869-22-22c0-12.131,9.869-22,22-22c12.131,0,22,9.869,22,22C438,414.131,428.131,424,416,424z"/>
	</g>
</g>
<g>
	<g>
		<path d="M202.667,360c-23.159,0-42,18.841-42,42s18.841,42,42,42s42-18.841,42-42S225.826,360,202.667,360z M202.667,424
			c-12.131,0-22-9.869-22-22c0-12.131,9.869-22,22-22c12.131,0,22,9.869,22,22C224.667,414.131,214.798,424,202.667,424z"/>
	</g>
</g>
<g>
	<g>
		<path d="M263.069,474.93C261.21,473.07,258.63,472,256,472c-2.641,0-5.21,1.07-7.07,2.93c-1.87,1.86-2.93,4.44-2.93,7.07
			s1.06,5.21,2.93,7.07c1.86,1.86,4.43,2.93,7.07,2.93c2.63,0,5.21-1.07,7.069-2.93c1.86-1.86,2.931-4.44,2.931-7.07
			S264.93,476.79,263.069,474.93z"/>
	</g>
</g>
<g>
</g>
<g>
</g>
<g>
</g>
<g>
</g>
<g>
</g>
<g>
</g>
<g>
</g>
<g>
</g>
<g>
</g>
<g>
</g>
<g>
</g>
<g>
</g>
<g>
</g>
<g>
</g>
<g>
</g>
</svg>
