<?xml version="1.0" encoding="UTF-8" standalone="no"?>
<svg
   xmlns:dc="http://purl.org/dc/elements/1.1/"
   xmlns:cc="http://creativecommons.org/ns#"
   xmlns:rdf="http://www.w3.org/1999/02/22-rdf-syntax-ns#"
   xmlns:svg="http://www.w3.org/2000/svg"
   xmlns="http://www.w3.org/2000/svg"
   xmlns:sodipodi="http://sodipodi.sourceforge.net/DTD/sodipodi-0.dtd"
   xmlns:inkscape="http://www.inkscape.org/namespaces/inkscape"
   version="1.0"
   width="328.000000pt"
   height="327.000000pt"
   viewBox="0 0 328.000000 327.000000"
   preserveAspectRatio="xMidYMid meet"
   id="svg5532"
   inkscape:version="0.91 r13725"
   sodipodi:docname="logobw.svg">
  <defs
     id="defs5558" />
  <sodipodi:namedview
     pagecolor="#ffffff"
     bordercolor="#666666"
     borderopacity="1"
     objecttolerance="10"
     gridtolerance="10"
     guidetolerance="10"
     inkscape:pageopacity="0"
     inkscape:pageshadow="2"
     inkscape:window-width="1360"
     inkscape:window-height="748"
     id="namedview5556"
     showgrid="false"
     inkscape:zoom="1.1884004"
     inkscape:cx="229.03273"
     inkscape:cy="191.71589"
     inkscape:window-x="0"
     inkscape:window-y="20"
     inkscape:window-maximized="0"
     inkscape:current-layer="g5536" />
  <metadata
     id="metadata5534">
Created by potrace 1.15, written by Peter Selinger 2001-2017
<rdf:RDF>
  <cc:Work
     rdf:about="">
    <dc:format>image/svg+xml</dc:format>
    <dc:type
       rdf:resource="http://purl.org/dc/dcmitype/StillImage" />
  </cc:Work>
</rdf:RDF>
</metadata>
  <g
     transform="translate(0.000000,327.000000) scale(0.100000,-0.100000)"
     fill="#000000"
     stroke="none"
     id="g5536">
    <path
       d="M1627 3093 c-8 -15 -37 -86 -66 -158 -28 -71 -55 -135 -59 -140 -4 -6 -47 -18 -97 -28 -152 -31 -355 -123 -460 -210 l-35 -29 59 -43 60 -44 86 53 c161 102 330 149 535 149 205 0 374 -47 536 -149 l85 -53 60 43 60 44 -35 29 c-107 88 -309 179 -465 211 l-93 19 -67 163 c-36 90 -71 165 -78 167 -6 3 -18 -8 -26 -24z"
       id="path5538"
       style="fill:#ffffff;fill-opacity:1" />
    <path
       d="M696 2569 c-8 -12 -12 -29 -9 -38 4 -9 46 -66 95 -128 l88 -111 56 55 c45 46 53 58 42 68 -54 50 -224 175 -239 175 -10 0 -25 -10 -33 -21z"
       id="path5540"
       style="fill:#ffffff;fill-opacity:1" />
    <path
       d="M2449 2509 c-57 -45 -110 -87 -117 -94 -11 -10 -3 -22 42 -68 l56 -55 90 113 c89 112 105 146 78 173 -23 23 -46 12 -149 -69z"
       id="path5542"
       style="fill:#ffffff;fill-opacity:1" />
    <path
       mask="none"
       d="M 200.79492 92.90625 C 195.08829 92.942261 189.97656 93.25 186.5 93.875 C 142.625 101.625 106.125 136.375 95.625 180.125 C 94.625 184.5 93.375 194.5 92.875 202.125 L 92.125 216.25 L 139.5 216.25 L 186.875 216.25 L 190.125 219.75 C 193 222.75 193.625 224.875 194.875 237.375 C 196.5 252.625 199 268.125 202 281.5 C 203.5 288.25 204.375 290 206.25 290 C 208.125 290 209 288.25 210.5 281.625 C 213.5 268.125 216 252.625 217.625 237.375 C 218.75 226.25 219.75 222.375 221.75 219.75 L 224.375 216.375 L 261 216.375 C 302.875 216.25 299.125 214.75 294.875 230 C 290.5 245.75 283.375 258 271.25 270 C 252.875 288.375 235.375 296.125 209.875 297.25 C 192.25 297.875 180 295.25 163.75 287.25 C 149.375 280.25 132.875 264 125.625 249.75 C 122.875 244.375 120.125 240 119.375 240 C 118.75 240 114.375 241.5 109.625 243.375 C 101.625 246.5 101.125 246.875 101.875 249.875 C 103.125 255.375 112.25 270.25 119.375 278.625 C 131.625 293.125 144.75 302.75 163.375 310.625 C 176.5 316.25 189.625 318.75 206.25 318.75 C 228.5 318.75 246.375 313.875 266 302.25 C 276.75 296 298.25 273.875 304.625 262.5 C 314.25 245.375 320 223 320 203 L 320 195 L 272.5 195 L 224.875 195 L 221.875 191.625 C 219.625 188.875 218.75 186.125 218.125 178.75 C 217.125 167 213.25 142.25 210.5 130.25 C 208.875 123.25 208 121.25 206.25 121.25 C 204.5 121.25 203.625 123.25 202 130.25 C 199.25 142.125 195.375 166.875 194.375 178.75 C 193.625 186.5 192.875 188.75 190.25 191.5 L 187 195 L 151 195 C 109.625 195 113.375 196.5 117.5 181.375 C 124.625 155.875 141.625 135.375 165.625 123.625 C 192.875 110.375 219.375 110.375 246.875 123.75 C 268.25 134 283.375 150.75 293.25 174.75 C 293.625 175.75 312.5 167.875 312.5 166.75 C 312.5 159.75 296.75 135.625 284.75 124.25 C 269.75 110 255.25 101.75 236 96.125 C 228.78125 94.0625 213.34952 92.827026 200.79492 92.90625 z M 207 199.16797 A 6.7889276 6.7889276 0 0 1 213.78906 205.95703 A 6.7889276 6.7889276 0 0 1 207 212.74609 A 6.7889276 6.7889276 0 0 1 200.21289 205.95703 A 6.7889276 6.7889276 0 0 1 207 199.16797 z "
       id="path5544"
       transform="matrix(8,0,0,-8,0,3270)"
       style="fill:#ffffff;fill-opacity:1" />
    <path
       d="M713 2323 c-103 -134 -178 -306 -214 -490 l-11 -62 -122 -49 c-66 -27 -138 -56 -159 -63 -47 -16 -62 -32 -45 -47 7 -5 84 -38 170 -72 l156 -62 12 -67 c14 -84 60 -222 101 -303 37 -75 130 -218 141 -218 7 0 88 104 88 113 0 3 -24 44 -54 91 -98 156 -146 331 -146 531 0 212 59 409 172 573 l30 44 -37 54 c-21 30 -41 57 -46 59 -4 3 -20 -12 -36 -32z"
       id="path5546"
       style="fill:#ffffff;fill-opacity:1" />
    <path
       d="M2518 2313 c-19 -26 -38 -54 -42 -60 -4 -7 6 -32 23 -57 113 -164 171 -358 171 -571 0 -200 -48 -375 -146 -531 -30 -47 -54 -88 -54 -91 0 -9 81 -113 88 -113 11 0 104 143 141 218 41 81 87 219 101 303 l12 67 156 62 c86 34 163 67 170 72 17 15 2 31 -45 47 -21 7 -93 36 -159 63 l-122 49 -11 62 c-30 156 -91 307 -175 434 -67 102 -68 102 -108 46z"
       id="path5548"
       style="fill:#ffffff;fill-opacity:1" />
    <path
       d="M777 840 c-86 -109 -101 -142 -75 -168 24 -24 52 -10 165 79 l114 92 -52 53 c-30 30 -56 54 -59 54 -3 0 -45 -50 -93 -110z"
       id="path5550"
       style="fill:#ffffff;fill-opacity:1" />
    <path
       d="M2371 896 l-52 -53 114 -92 c63 -50 124 -91 135 -91 26 0 53 37 44 59 -9 21 -174 231 -182 231 -3 0 -29 -24 -59 -54z"
       id="path5552"
       style="fill:#ffffff;fill-opacity:1" />
    <path
       d="M970 763 l-61 -44 38 -31 c58 -46 162 -105 250 -142 81 -34 229 -76 270 -76 30 0 40 -18 109 -192 41 -104 63 -148 74 -148 11 0 33 44 74 148 69 174 79 192 109 192 41 0 189 42 270 76 88 37 192 96 250 142 l38 31 -61 44 -61 45 -52 -35 c-80 -55 -208 -112 -315 -140 -85 -23 -117 -26 -252 -26 -135 0 -167 3 -252 26 -107 28 -235 85 -315 140 l-52 35 -61 -45z"
       id="path5554"
       style="fill:#ffffff;fill-opacity:1" />
  </g>
</svg>
